HIERARCHY
ROOT root
{
	OFFSET	0	13.1	24.9
	CHANNELS 6  Xposition Yposition Zposition Xrotation Yrotation Zrotation
	JOINT spine_1
	{
		OFFSET	0	9.99999	0
		CHANNELS 3  Xrotation Yrotation Zrotation
		JOINT spine_2
		{
			OFFSET	0	112	-10
			CHANNELS 3  Xrotation Yrotation Zrotation
			JOINT spine_3
			{
				OFFSET	0	206.5	19.3
				CHANNELS 3  Xrotation Yrotation Zrotation
				JOINT spine_4
				{
					OFFSET	0	110.4	14.6
					CHANNELS 3  Xrotation Yrotation Zrotation
					JOINT neck_1
					{
						OFFSET	0	71.8	-50.3
						CHANNELS 3  Xrotation Yrotation Zrotation
						JOINT neck_2
						{
							OFFSET	0	86.2	-25.8
							CHANNELS 3  Xrotation Yrotation Zrotation
							JOINT head_ee
							{
								OFFSET	0	179.8	-8.7
								CHANNELS 3  Xrotation Yrotation Zrotation
								End Site
								{
									OFFSET	1	0	0
								}
							}
						}
					}
					JOINT left_clavicle
					{
						OFFSET	-43.2	22.4	-70.8
						CHANNELS 3  Xrotation Yrotation Zrotation
						JOINT left_shoulder
						{
							OFFSET	-93.9	-5.79999	48.7
							CHANNELS 3  Xrotation Yrotation Zrotation
							JOINT left_elbow
							{
								OFFSET	-291.4	-30.8	15.2
								CHANNELS 3  Xrotation Yrotation Zrotation
								JOINT left_lowarm_twist
								{
									OFFSET	-110.7	-3.89999	13.6
									CHANNELS 3  Xrotation Yrotation Zrotation
									JOINT left_hand
									{
										OFFSET	-110.7	-3.89999	13.6
										CHANNELS 3  Xrotation Yrotation Zrotation
										JOINT left_ee
										{
											OFFSET	-80.8	-5.10001	12.1
											CHANNELS 3  Xrotation Yrotation Zrotation
											End Site
											{
												OFFSET	1	0	0
											}
										}
									}
								}
							}
						}
					}
					JOINT right_clavicle
					{
						OFFSET	43.2	22.4	-70.8
						CHANNELS 3  Xrotation Yrotation Zrotation
						JOINT right_shoulder
						{
							OFFSET	93.9	-5.79999	48.7
							CHANNELS 3  Xrotation Yrotation Zrotation
							JOINT right_elbow
							{
								OFFSET	291.4	-30.8	15.2
								CHANNELS 3  Xrotation Yrotation Zrotation
								JOINT right_lowarm_twist
								{
									OFFSET	110.7	-3.89999	13.6
									CHANNELS 3  Xrotation Yrotation Zrotation
									JOINT right_hand
									{
										OFFSET	110.7	-3.89999	13.6
										CHANNELS 3  Xrotation Yrotation Zrotation
										JOINT right_ee
										{
											OFFSET	80.8	-5.10001	12.1
											CHANNELS 3  Xrotation Yrotation Zrotation
											End Site
											{
												OFFSET	1	0	0
											}
										}
									}
								}
							}
						}
					}
				}
			}
		}
	}
	JOINT left_hip
	{
		OFFSET	-82.8	-127.5	0.300001
		CHANNELS 3  Xrotation Yrotation Zrotation
		JOINT left_knee
		{
			OFFSET	-28.2	-396.7	2.2
			CHANNELS 3  Xrotation Yrotation Zrotation
			JOINT left_ankle
			{
				OFFSET	-11.7	-411.3	35.4
				CHANNELS 3  Xrotation Yrotation Zrotation
				JOINT left_toes
				{
					OFFSET	0	-60	-88.6
					CHANNELS 3  Xrotation Yrotation Zrotation
					JOINT left_foot_ee
					{
						OFFSET	-22.5	-16.5	-42.2
						CHANNELS 3  Xrotation Yrotation Zrotation
						End Site
						{
							OFFSET	1	0	0
						}
					}
				}
			}
		}
	}
	JOINT right_hip
	{
		OFFSET	82.8	-127.5	0.300001
		CHANNELS 3  Xrotation Yrotation Zrotation
		JOINT right_knee
		{
			OFFSET	28.2	-396.7	2.2
			CHANNELS 3  Xrotation Yrotation Zrotation
			JOINT right_ankle
			{
				OFFSET	11.7	-411.3	35.4
				CHANNELS 3  Xrotation Yrotation Zrotation
				JOINT right_toes
				{
					OFFSET	0	-60	-88.6
					CHANNELS 3  Xrotation Yrotation Zrotation
					JOINT right_foot_ee
					{
						OFFSET	22.5	-16.5	-42.2
						CHANNELS 3  Xrotation Yrotation Zrotation
						End Site
						{
							OFFSET	1	0	0
						}
					}
				}
			}
		}
	}
}
MOTION
Frames: 15
Frame Time: 0.02
2800.94 716.97 -1473.77 14.3033503125 57.4269421977 -6.80572118624 -3.10681 -0.373207 -2.70288 -3.10277 -0.200525 -2.72114 -3.08784 0.521206 -2.6783 -3.09783 0.0918413 -2.72696 -20.5348 4.08139 12.3991 -20.1057 1.68696 13.2224 -0.0 0.0 -0.0 7.93055 19.3611 14.26 4.00738 -32.8003 53.9075 3.89226 -62.5695 2.36569 -82.7417 -8.16851 5.23444 -4.41905 27.8694 -13.3025 -0.0 0.0 -0.0 6.85469 24.7379 -12.0362 -18.9359 18.0134 -66.6127 0.644473 17.7059 -0.100381 -38.2235 2.76424 -3.93017 -4.06411 -21.3825 15.4587 0.0 0.0 0.0 -10.896 27.2521 -4.58029 -27.5968 0.128584 4.19234 38.288 -14.5806 -4.99836 -16.2525 0.0 0.0 -0.0 0.0 -0.0 37.0182 36.7644 -18.5989 -4.2998 -0.153 -0.641998 -6.60345 -0.635276 -0.98902 -10.3191 0.0 0.0 0.0 0.0 0.0 
2695.66153761 747.626 -1526.18266456 12.6461137123 65.9291827762 -6.24414827618 -2.21123 -0.356865 -2.57149 -2.20757 -0.192567 -2.58897 -2.19482 0.454335 -2.55608 -2.20393 0.0450899 -2.59573 -12.0044 10.4442 8.41066 -11.9169 14.41 10.9874 -0.0 0.0 -0.0 6.95722 19.6035 12.722 -6.95875 -30.7479 54.874 2.64006 -52.5881 1.30463 -83.2342 -8.2305 5.22453 -4.00332 26.832 -11.635 -0.0 0.0 -0.0 6.53156 23.0197 -11.4933 -9.73528 28.8691 -66.9708 0.369659 10.3771 -0.0335675 -42.4354 3.21381 -4.23003 -3.39828 -22.3393 10.8671 0.0 0.0 0.0 -16.5839 27.9948 -4.99567 -18.026 0.313911 2.73704 32.4612 -13.8222 -4.40095 -18.3503 0.0 0.0 -0.0 0.0 -0.0 32.0556 36.1059 -17.657 -4.89088 -0.170248 -0.73107 -14.6722 3.02596 -2.24583 1.48069 -0.0 -0.0 0.0 0.0 0.0 
2697.09258038 747.626 -1528.96379935 11.9442755299 64.440255976 -5.47098128589 -2.21123 -0.356865 -2.57149 -2.20757 -0.192567 -2.58897 -2.19482 0.454335 -2.55608 -2.20393 0.0450899 -2.59573 -12.0044 10.4442 8.41066 -11.9169 14.41 10.9874 -0.0 0.0 -0.0 6.95722 19.6035 12.722 -6.95875 -30.7479 54.874 2.64006 -52.5881 1.30463 -83.2342 -8.2305 5.22453 -4.00332 26.832 -11.635 -0.0 0.0 -0.0 6.53156 23.0197 -11.4933 -9.73528 28.8691 -66.9708 0.369659 10.3771 -0.0335675 -42.4354 3.21381 -4.23003 -3.39828 -22.3393 10.8671 0.0 0.0 0.0 -16.5839 27.9948 -4.99567 -18.026 0.313911 2.73704 32.4612 -13.8222 -4.40095 -18.3503 0.0 0.0 -0.0 0.0 -0.0 32.0556 36.1059 -17.657 -4.89088 -0.170248 -0.73107 -14.6722 3.02596 -2.24583 1.48069 -0.0 -0.0 0.0 0.0 0.0 
2697.84654105 747.626 -1530.35958183 11.6198099813 63.6836464856 -5.11017844683 -2.21123 -0.356865 -2.57149 -2.20757 -0.192567 -2.58897 -2.19482 0.454335 -2.55608 -2.20393 0.0450899 -2.59573 -12.0044 10.4442 8.41066 -11.9169 14.41 10.9874 -0.0 0.0 -0.0 6.95722 19.6035 12.722 -6.95875 -30.7479 54.874 2.64006 -52.5881 1.30463 -83.2342 -8.2305 5.22453 -4.00332 26.832 -11.635 -0.0 0.0 -0.0 6.53156 23.0197 -11.4933 -9.73528 28.8691 -66.9708 0.369659 10.3771 -0.0335675 -42.4354 3.21381 -4.23003 -3.39828 -22.3393 10.8671 0.0 0.0 0.0 -16.5839 27.9948 -4.99567 -18.026 0.313911 2.73704 32.4612 -13.8222 -4.40095 -18.3503 0.0 0.0 -0.0 0.0 -0.0 32.0556 36.1059 -17.657 -4.89088 -0.170248 -0.73107 -14.6722 3.02596 -2.24583 1.48069 -0.0 -0.0 0.0 0.0 0.0 
2681.74557969 751.268 -1538.99367492 11.7458539273 64.326726869 -5.05834522233 -2.23747 -0.336297 -2.578 -2.23379 -0.171627 -2.59416 -2.22197 0.477142 -2.5557 -2.23108 0.0676711 -2.59895 -11.6719 11.3987 8.82501 -11.5803 15.8884 11.6067 -0.0 0.0 -0.0 6.29662 19.4158 11.7179 -8.15923 -30.5815 55.6246 2.54782 -51.601 1.23185 -82.9942 -8.2003 5.22942 -3.7978 27.2084 -10.242 -0.0 0.0 -0.0 6.49104 22.3535 -11.4658 -9.39099 30.8558 -66.7405 0.407572 11.4147 -0.0407342 -43.2099 3.29883 -4.28155 -3.4559 -21.8841 11.4764 0.0 0.0 0.0 -16.8274 26.9246 -5.33587 -17.3533 0.317756 2.6339 31.8669 -13.6982 -4.33462 -18.4059 0.0 0.0 -0.0 0.0 -0.0 31.4679 35.9529 -17.8246 -4.93065 -0.171376 -0.73707 -12.7754 5.69636 -1.97312 2.55704 -0.0 -0.0 0.0 0.0 0.0 
2662.50749052 750.603 -1544.08623301 11.7863749764 63.9544797337 -5.52881429884 -2.16821 -0.401711 -2.49523 -2.16478 -0.24217 -2.51572 -2.15027 0.386135 -2.49769 -2.15897 -0.0130428 -2.5273 -10.8405 12.4535 9.55076 -10.7105 17.225 12.4701 -0.0 0.0 -0.0 5.48683 21.1207 10.4086 -9.36087 -30.5797 57.3355 2.47675 -50.8101 1.17646 -83.4029 -8.25171 5.22101 -3.47467 26.8769 -8.63637 -0.0 0.0 -0.0 5.85244 20.3452 -10.2523 -6.54272 32.8475 -67.6753 0.421055 11.7819 -0.0434449 -44.5201 3.44419 -4.36607 -4.117 -24.0146 14.0961 0.0 0.0 0.0 -16.6584 26.3837 -5.24935 -21.5022 0.274762 3.26891 28.7563 -12.7743 -3.9697 -16.834 0.0 0.0 -0.0 0.0 -0.0 29.0621 34.4682 -17.0954 -4.58582 -0.161461 -0.685077 -10.6122 3.50322 -1.61999 2.58308 -0.0 -0.0 0.0 0.0 0.0 
2662.8145847 750.603 -1544.68757153 11.6832410253 63.7105235285 -5.41390319702 -2.16821 -0.401711 -2.49523 -2.16478 -0.24217 -2.51572 -2.15027 0.386135 -2.49769 -2.15897 -0.0130428 -2.5273 -10.8405 12.4535 9.55076 -10.7105 17.225 12.4701 -0.0 0.0 -0.0 5.48683 21.1207 10.4086 -9.36087 -30.5797 57.3355 2.47675 -50.8101 1.17646 -83.4029 -8.25171 5.22101 -3.47467 26.8769 -8.63637 -0.0 0.0 -0.0 5.85244 20.3452 -10.2523 -6.54272 32.8475 -67.6753 0.421055 11.7819 -0.0434449 -44.5201 3.44419 -4.36607 -4.117 -24.0146 14.0961 0.0 0.0 0.0 -16.6584 26.3837 -5.24935 -21.5022 0.274762 3.26891 28.7563 -12.7743 -3.9697 -16.834 0.0 0.0 -0.0 0.0 -0.0 29.0621 34.4682 -17.0954 -4.58582 -0.161461 -0.685077 -10.6122 3.50322 -1.61999 2.58308 -0.0 -0.0 0.0 0.0 0.0 
2647.38552471 752.025 -1547.64622584 12.4922012138 63.8077173921 -6.2838757356 -2.13085 -0.27517 -2.49902 -2.12739 -0.115644 -2.51145 -2.11871 0.506451 -2.4626 -2.12716 0.111301 -2.51165 -10.3736 12.8382 9.51475 -10.2412 17.8656 12.471 -0.0 0.0 -0.0 5.07355 19.756 9.84108 -11.4705 -30.566 58.0546 2.34708 -49.2945 1.07704 -83.0085 -8.2021 5.22914 -3.15998 26.2186 -7.25778 -0.0 0.0 -0.0 6.23111 19.8205 -11.1187 -6.33478 34.2632 -66.6894 0.453596 12.6641 -0.0503347 -45.1257 3.51203 -4.40401 -3.72112 -22.1871 12.8814 0.0 0.0 0.0 -16.3613 25.5137 -5.74485 -24.0009 0.226727 3.6493 28.309 -13.0673 -3.92594 -17.7168 0.0 0.0 -0.0 0.0 -0.0 28.3659 35.9588 -17.4618 -4.81985 -0.168225 -0.720358 -9.42135 4.85864 -1.4436 3.50043 -0.0 -0.0 0.0 0.0 0.0 
2625.60723747 754.043 -1551.33747728 12.4447384937 64.8588889422 -6.78364803061 -2.08566 -0.242345 -2.39398 -2.08248 -0.0895636 -2.40454 -2.07548 0.503617 -2.35294 -2.08319 0.125806 -2.40292 -10.4426 12.7807 9.39759 -10.3183 17.8524 12.3543 -0.0 0.0 -0.0 4.51655 20.1745 8.9974 -12.0557 -28.4162 60.3701 2.27201 -48.3721 1.02052 -82.9708 -8.19736 5.22989 -3.1277 27.1283 -6.5621 -0.0 0.0 -0.0 6.15763 18.8748 -11.036 -4.24745 35.2434 -66.725 0.467013 13.0261 -0.0533174 -45.6727 3.57364 -4.43767 -3.81185 -22.8556 13.0142 0.0 0.0 0.0 -15.9574 24.6224 -5.88923 -26.9979 0.147297 4.10232 26.576 -12.1043 -3.70368 -17.1234 0.0 0.0 -0.0 0.0 -0.0 27.176 35.9819 -17.3155 -5.55042 -0.188407 -0.830658 -5.53382 4.69242 -0.841796 4.60065 -0.0 -0.0 0.0 0.0 0.0 
2626.55906128 754.043 -1553.45424788 12.1349273078 64.1811820291 -6.4404627865 -2.08566 -0.242345 -2.39398 -2.08248 -0.0895636 -2.40454 -2.07548 0.503617 -2.35294 -2.08319 0.125806 -2.40292 -10.4426 12.7807 9.39759 -10.3183 17.8524 12.3543 -0.0 0.0 -0.0 4.51655 20.1745 8.9974 -12.0557 -28.4162 60.3701 2.27201 -48.3721 1.02052 -82.9708 -8.19736 5.22989 -3.1277 27.1283 -6.5621 -0.0 0.0 -0.0 6.15763 18.8748 -11.036 -4.24745 35.2434 -66.725 0.467013 13.0261 -0.0533174 -45.6727 3.57364 -4.43767 -3.81185 -22.8556 13.0142 0.0 0.0 0.0 -15.9574 24.6224 -5.88923 -26.9979 0.147297 4.10232 26.576 -12.1043 -3.70368 -17.1234 0.0 0.0 -0.0 0.0 -0.0 27.176 35.9819 -17.3155 -5.55042 -0.188407 -0.830658 -5.53382 4.69242 -0.841796 4.60065 -0.0 -0.0 0.0 0.0 0.0 
2611.08836016 755.51 -1556.76066197 12.943411086 65.0076268255 -7.6506586245 -2.16655 -0.277419 -2.32187 -2.16356 -0.129152 -2.33481 -2.15511 0.451262 -2.29444 -2.16245 0.0833377 -2.33689 -10.4758 13.4406 9.74785 -10.3478 18.8784 12.864 -0.0 0.0 -0.0 3.99756 20.1226 8.22586 -14.806 -30.2769 59.9328 2.13588 -46.6099 0.920162 -82.915 -8.19033 5.23101 -2.75513 25.543 -5.35865 -0.0 0.0 -0.0 6.37772 19.2999 -11.4796 -3.13179 35.5042 -66.2439 0.473943 13.2127 -0.0548904 -46.0899 3.62085 -4.46294 -3.93429 -22.976 13.6693 0.0 0.0 0.0 -15.9804 24.3639 -5.87305 -27.81 0.121697 4.22433 25.68 -12.9757 -3.61687 -17.946 0.0 0.0 -0.0 0.0 -0.0 25.4615 35.7196 -16.8999 -6.04158 -0.201184 -0.90495 -4.16778 4.93051 -0.632903 4.76771 -0.0 -0.0 0.0 0.0 0.0 
2576.50143204 756.379 -1564.55984932 14.3507711546 66.0003898384 -9.61094587065 -2.26857 -0.298974 -2.27722 -2.2657 -0.153501 -2.29162 -2.25637 0.42097 -2.25787 -2.26348 0.0591973 -2.29599 -10.946 13.3936 10.8337 -10.7589 18.1851 13.9516 -0.0 0.0 -0.0 3.51408 21.831 7.52964 -17.1278 -29.2296 61.9642 1.91872 -43.541 0.766349 -83.0677 -8.20956 5.22794 -2.45855 24.3041 -4.33403 -0.0 0.0 -0.0 6.74691 17.5121 -12.4173 -3.18411 37.0569 -65.8828 0.591282 16.3256 -0.0848142 -46.7077 3.69109 -4.49973 -3.76355 -21.2067 13.7346 0.0 0.0 0.0 -15.8502 24.0065 -5.51802 -29.8334 0.0504129 4.52666 25.5641 -11.9594 -3.58111 -18.2085 0.0 0.0 -0.0 0.0 -0.0 22.6487 35.7436 -16.7169 -7.01206 -0.224554 -1.05205 0.917497 1.07219 0.135812 6.33537 -0.0 -0.0 0.0 0.0 0.0 
2579.66757494 756.379 -1572.02467639 13.3619912999 64.1371403233 -8.52070744052 -2.26857 -0.298974 -2.27722 -2.2657 -0.153501 -2.29162 -2.25637 0.42097 -2.25787 -2.26348 0.0591973 -2.29599 -10.946 13.3936 10.8337 -10.7589 18.1851 13.9516 -0.0 0.0 -0.0 3.51408 21.831 7.52964 -17.1278 -29.2296 61.9642 1.91872 -43.541 0.766349 -83.0677 -8.20956 5.22794 -2.45855 24.3041 -4.33403 -0.0 0.0 -0.0 6.74691 17.5121 -12.4173 -3.18411 37.0569 -65.8828 0.591282 16.3256 -0.0848142 -46.7077 3.69109 -4.49973 -3.76355 -21.2067 13.7346 0.0 0.0 0.0 -15.8502 24.0065 -5.51802 -29.8334 0.0504129 4.52666 25.5641 -11.9594 -3.58111 -18.2085 0.0 0.0 -0.0 0.0 -0.0 22.6487 35.7436 -16.7169 -7.01206 -0.224554 -1.05205 0.917497 1.07219 0.135812 6.33537 -0.0 -0.0 0.0 0.0 0.0 
2562.82651128 754.941 -1576.6633344 13.5098353623 61.8920315887 -8.96825015092 -2.17239 -0.258983 -2.18967 -2.16973 -0.119158 -2.20171 -2.16232 0.428339 -2.16294 -2.16884 0.0814536 -2.20342 -13.2131 11.843 11.0781 -13.0242 15.6588 14.0622 -0.0 0.0 -0.0 3.46372 23.7674 7.47565 -18.3729 -28.5623 63.0197 1.78829 -41.5329 0.678158 -83.4269 -8.25472 5.22051 -2.18339 22.5647 -3.63706 -0.0 0.0 -0.0 6.61589 17.2898 -12.1494 -3.17387 39.497 -65.3621 0.696955 19.0473 -0.116928 -46.4477 3.66147 -4.48434 -3.65715 -20.8546 13.301 0.0 0.0 0.0 -15.2003 23.1577 -5.60625 -33.8754 -0.123774 5.12233 24.8014 -11.9747 -3.49005 -18.1703 0.0 0.0 -0.0 0.0 -0.0 19.4085 36.3645 -15.566 -6.16386 -0.204266 -0.923462 6.30525 1.10695 0.91893 6.41913 -0.0 -0.0 0.0 0.0 0.0 
2524.08278159 762.606 -1586.38237869 17.5975599027 64.2008417448 -13.012449657 -2.00408 -0.419062 -1.75215 -2.00242 -0.306737 -1.77525 -1.99091 0.135715 -1.79643 -1.99538 -0.149654 -1.79532 -15.2312 10.0635 13.2069 -14.845 11.4721 15.7336 -0.0 0.0 -0.0 3.42974 23.5436 7.42702 -20.9861 -24.6749 64.3403 1.35897 -33.9464 0.414802 -85.0817 -8.46214 5.18257 -1.71414 21.8773 -1.24434 -0.0 0.0 -0.0 8.95188 10.9322 -17.5333 -12.9786 44.7282 -56.6293 0.846277 22.7442 -0.170214 -46.1963 3.63292 -4.46933 -2.42264 -13.5128 9.67149 0.0 0.0 0.0 -14.1003 24.1268 -9.58868 -35.2172 -0.190854 5.31723 23.0111 -17.2775 -3.39184 -18.8013 0.0 0.0 -0.0 0.0 -0.0 14.7445 36.2117 -15.3557 -6.56724 -0.214152 -0.984577 9.511 -0.617204 1.36523 6.72251 -0.0 -0.0 0.0 0.0 0.0 
